<svg width="3387" height="1423" viewBox="0 0 3387 1423" fill="none" xmlns="http://www.w3.org/2000/svg">
<g clip-path="url(#clip0_373_22)">
<path d="M2350.32 1421.41C2337.95 1419.24 2322.83 1411.42 2296.77 1393.71C2284.9 1385.64 2244.39 1345.68 2233.52 1331.31C2220.36 1313.92 2215.16 1306.66 2211.13 1300.03C2209 1296.55 2204.15 1288.89 2200.33 1283.03C2196.51 1277.16 2190.45 1267.67 2186.86 1261.93C2183.26 1256.19 2177.92 1247.79 2175 1243.26C2168.42 1233.09 2132.42 1197 2125.67 1193.79C2118.4 1190.34 2097.64 1191.18 2094.82 1195.03C2093.16 1197.3 2092.93 1206.94 2093.26 1259.69C2093.7 1328.67 2093.21 1324.92 2103.17 1336.03C2108.34 1341.8 2108.62 1343.54 2105.1 1347.88L2102.56 1351.03H2066.99H2031.42L2028.87 1347.88C2025.21 1343.37 2025.64 1341.51 2031.78 1335.26C2042.55 1324.3 2041.61 1339.03 2042.02 1175.1L2042.38 1028.51L2034.02 1020.75C2025.71 1013.04 2025.67 1012.97 2027.71 1009.34L2029.75 1005.69L2077.04 1005.31C2114.18 1005 2127.75 1005.37 2140.32 1007.02C2149.12 1008.17 2159.02 1009.45 2162.32 1009.85C2169.48 1010.73 2187.28 1018.3 2194.11 1023.36C2209.81 1035 2218.42 1050.81 2222.39 1075.29C2225.65 1095.42 2225.64 1106.14 2222.33 1120.31C2218.11 1138.41 2210.29 1151.55 2196.95 1162.94C2193.02 1166.29 2189.36 1169.03 2188.8 1169.03C2188.24 1169.03 2186.18 1171.13 2184.22 1173.71L2180.65 1178.39L2191.19 1189.38C2205.33 1204.1 2223.27 1228.68 2243.79 1261.43C2249.22 1270.08 2255.26 1279.68 2257.22 1282.76C2259.17 1285.84 2263.86 1293.46 2267.62 1299.69C2298.68 1351.14 2320.81 1379.37 2345.18 1398.58C2351.95 1403.93 2357.32 1409.22 2357.76 1410.99C2358.38 1413.45 2355.16 1422.91 2353.95 1422.18C2353.79 1422.08 2352.15 1421.73 2350.32 1421.41ZM2122.99 1155.21C2142.11 1150.28 2160.83 1136.37 2168.37 1121.48C2172.04 1114.26 2172.32 1112.64 2172.32 1099.03C2172.32 1084.71 2172.21 1084.17 2167.65 1076.2C2158.36 1059.95 2137.83 1047.47 2115.95 1044.78C2105.13 1043.45 2103.52 1043.55 2098.83 1045.83L2093.65 1048.36L2093.3 1099.42C2093.07 1133.99 2093.42 1151.34 2094.39 1153.16C2097.55 1159.06 2105.77 1159.65 2122.99 1155.21ZM789.653 1362.14C788.186 1361.33 785.297 1359.1 783.233 1357.18L779.479 1353.69L665.458 1353.03C554.533 1352.38 551.386 1352.29 549.545 1349.77C545.619 1344.4 547.849 1339.31 556.736 1333.35C560.376 1330.91 565.625 1320.96 566.756 1314.36C567.196 1311.79 567.671 1246 567.812 1168.15L568.069 1026.61L563.861 1020.89C558.935 1014.19 558.73 1012.62 562.32 1009.03C564.82 1006.53 566.761 1006.36 593.32 1006.37C619.213 1006.37 622.026 1006.6 625.986 1009.01C628.37 1010.47 630.32 1012 630.32 1012.43C630.32 1012.86 628.838 1015.15 627.028 1017.52C619.251 1027.72 619.653 1019.43 619.653 1169.56C619.653 1319.65 619.202 1310.57 626.746 1312.39C628.345 1312.78 663.523 1312.93 704.919 1312.73L780.185 1312.36L784.739 1306.36C791.174 1297.88 792.809 1297.22 796.553 1301.57C799.572 1305.08 799.653 1305.87 799.653 1331.54C799.653 1357.37 799.591 1357.95 796.567 1360.8C793.027 1364.12 793.185 1364.09 789.653 1362.14ZM1361.68 1355.47C1336.76 1352.63 1316.61 1345.65 1289.83 1330.59C1283.86 1327.24 1275.69 1321.98 1271.65 1318.91C1261.46 1311.14 1238.56 1287.25 1232.45 1278.02C1226.5 1269.01 1213.62 1243.34 1212.19 1237.65C1211.65 1235.47 1210.14 1231.29 1208.85 1228.36C1204.9 1219.42 1199.65 1186.9 1199.65 1171.35C1199.65 1156.48 1204.45 1128.52 1208.26 1121.14C1209.37 1118.99 1211.18 1114.58 1212.29 1111.33C1214.87 1103.72 1226.68 1082.28 1233.01 1073.69C1239.71 1064.61 1261.65 1042.53 1269 1037.48C1278.46 1030.97 1299.45 1018.6 1302.7 1017.62C1304.32 1017.13 1307.75 1015.59 1310.32 1014.21C1316.44 1010.92 1335.71 1005.46 1347.94 1003.55C1362.69 1001.25 1394.33 1002.68 1404.32 1006.1C1408.72 1007.6 1414.42 1009.2 1416.99 1009.65C1419.55 1010.11 1425.55 1011.89 1430.32 1013.62C1455.16 1022.63 1470.62 1026.36 1483.14 1026.36C1492.65 1026.36 1496.48 1024.65 1502.64 1017.65C1508.49 1011 1510.16 1010.5 1513.64 1014.35C1515.83 1016.76 1516.1 1020.81 1516.57 1058.02C1517.07 1097.35 1516.98 1099.21 1514.39 1103.36C1509.31 1111.52 1504.06 1108.23 1495.74 1091.65C1483.13 1066.53 1466.98 1052.15 1441.24 1043.11C1429.22 1038.9 1427.74 1038.61 1409.66 1037.03C1370.43 1033.59 1341.44 1040.98 1311.94 1061.94C1297.38 1072.29 1281.81 1090.91 1276.05 1104.86C1274.95 1107.52 1273.26 1110.59 1272.28 1111.69C1271.31 1112.79 1268.55 1120.59 1266.14 1129.03C1261.94 1143.74 1261.76 1145.33 1261.71 1168.36C1261.65 1192.04 1261.71 1192.55 1266.16 1206.36C1268.63 1214.06 1271.78 1221.79 1273.16 1223.54C1274.53 1225.29 1275.65 1227.38 1275.65 1228.18C1275.65 1230.56 1284.87 1245.02 1292.4 1254.47C1299.65 1263.56 1325.65 1286.13 1334.99 1291.44C1349.66 1299.78 1372.07 1308.22 1387.27 1311.12C1400.34 1313.63 1429.83 1313.58 1440.61 1311.03C1449.56 1308.92 1470.16 1298.85 1476.45 1293.51C1478.58 1291.7 1485.5 1285.15 1491.83 1278.96C1503.75 1267.3 1507.13 1265.73 1512.28 1269.5C1514.41 1271.06 1514.62 1272.46 1513.87 1279.83C1513.39 1284.52 1512.41 1294.06 1511.69 1301.03C1510.98 1307.99 1510.38 1320.07 1510.36 1327.86C1510.31 1346.45 1509.52 1350.02 1504.94 1352.38C1501.34 1354.25 1501.13 1354.15 1496.23 1348.17C1489.57 1340.03 1485.09 1338.36 1469.99 1338.36C1455.61 1338.36 1440.3 1342.27 1422.99 1350.36C1410.09 1356.39 1386.8 1358.33 1361.68 1355.47ZM2726.72 1355.66C2709.65 1353.5 2692.23 1348.16 2676.99 1340.4C2650.85 1327.11 2641.59 1320.42 2621.59 1300.42C2607.29 1286.12 2594.88 1268.88 2587.46 1253.03C2585.92 1249.73 2583.91 1246.13 2582.99 1245.03C2580.3 1241.8 2572.95 1217.2 2571.63 1207.05C2570.97 1201.9 2569.8 1194.46 2569.04 1190.51C2564.32 1166.07 2572.78 1118.7 2586.2 1094.36C2588.42 1090.33 2591.51 1084.69 2593.07 1081.84C2596.26 1075.98 2609.16 1057.03 2612.68 1053.01C2619.43 1045.31 2634.25 1031.66 2642.97 1025.12C2663.97 1009.37 2679.51 1001.81 2706.99 993.952C2721.32 989.854 2722.28 989.759 2749.65 989.739C2777.05 989.719 2777.98 989.809 2792.99 993.964C2818.07 1000.91 2826.32 1004.41 2843.65 1015.47C2869.34 1031.85 2890.25 1053.14 2904.12 1077.03C2906.89 1081.79 2909.74 1086.59 2910.44 1087.69C2911.14 1088.79 2912.93 1092.39 2914.4 1095.69C2915.88 1098.99 2917.96 1103.49 2919.03 1105.69C2920.1 1107.89 2922.92 1116.29 2925.31 1124.36L2929.65 1139.03L2929.61 1172.36C2929.59 1194.11 2929.02 1207.55 2927.99 1211.03C2927.12 1213.96 2925.28 1220.56 2923.9 1225.69C2921.23 1235.62 2911.54 1256.58 2904.69 1267.25C2902.41 1270.8 2898.43 1276.99 2895.83 1281.03C2893.24 1285.06 2883.82 1295.56 2874.91 1304.36C2862.07 1317.03 2855.76 1322.11 2844.56 1328.78C2819.59 1343.63 2802.99 1350.81 2786.57 1353.84C2773.68 1356.22 2739.39 1357.26 2726.72 1355.66ZM2780.32 1313.08C2802.97 1306.25 2818.07 1297.38 2833.78 1281.69C2850.43 1265.06 2859.65 1250.5 2868.83 1226.36C2870.37 1222.33 2873.14 1208.85 2875 1196.42C2877.88 1177.16 2878.18 1172.41 2877.01 1164.42C2876.25 1159.25 2875.03 1150.23 2874.29 1144.36C2872.79 1132.4 2866.33 1110.46 2861.34 1100.36C2855.17 1087.86 2845.76 1075.04 2834.37 1063.62C2814.98 1044.19 2795.7 1033.65 2772.32 1029.69C2727.88 1022.17 2692.69 1033.47 2662.07 1065.1C2643.68 1084.11 2633.93 1104.49 2627.04 1138.35C2622.33 1161.5 2622.31 1185.06 2626.99 1207.22C2633.87 1239.84 2643.56 1259.45 2663.67 1281.46C2675.6 1294.52 2697.59 1308.19 2712.51 1311.83C2716.07 1312.7 2720.17 1314.02 2721.62 1314.76C2731.15 1319.64 2761.45 1318.78 2780.32 1313.08ZM2741.65 1195.84C2723.73 1187.57 2721.16 1163.98 2736.76 1150.98C2742 1146.61 2752.03 1145.09 2758.36 1147.71C2763.9 1150.01 2771.38 1159.06 2773.15 1165.62C2775.39 1173.96 2772.79 1183.41 2766.61 1189.31C2757.83 1197.7 2750.08 1199.73 2741.65 1195.84ZM888.238 1351.69C884.832 1351.1 884.266 1350.37 883.91 1346.1C883.553 1341.8 884.003 1340.92 887.448 1339.13C889.619 1338.01 892.804 1334.83 894.524 1332.06C897.604 1327.11 897.659 1326.38 898.042 1286.36C898.255 1263.99 897.921 1198.89 897.299 1141.69L896.168 1037.69L892.62 1029.96C890.669 1025.71 887.854 1020.68 886.363 1018.78C883.594 1015.26 882.853 1009.69 884.758 1006.69C885.599 1005.36 906.791 1005.08 986.26 1005.35L1086.7 1005.69L1089.37 1009.27C1091.8 1012.52 1092.05 1015.04 1092.18 1036.89C1092.31 1059.82 1092.19 1061.07 1089.45 1063.81L1086.58 1066.7L1082.31 1060.86C1079.96 1057.65 1077.09 1053.09 1075.94 1050.71C1074.79 1048.34 1071.4 1044.74 1068.42 1042.71L1062.99 1039.03L1014.32 1039.08C987.553 1039.11 963.405 1039.59 960.656 1040.14C951.572 1041.97 951.51 1042.39 951.94 1098.85C952.244 1138.65 952.687 1149.06 954.15 1150.82C955.794 1152.8 961.236 1153.03 1007.74 1153.03H1059.5L1065.71 1144.95C1070.81 1138.32 1072.53 1136.95 1075.32 1137.29C1080.47 1137.91 1081.93 1141.27 1079.66 1147.3C1078.34 1150.81 1077.54 1160.91 1077.04 1180.22C1076.4 1204.83 1076.05 1208.25 1073.99 1209.55C1070.53 1211.72 1067.61 1209.37 1063.01 1200.68C1060.83 1196.55 1057.65 1192.54 1055.95 1191.77C1053.96 1190.86 1035.55 1190.36 1004.29 1190.36H955.715L953.546 1193.67C951.659 1196.55 951.296 1204.15 950.754 1252.25L950.131 1307.51L953.316 1309.6C956.01 1311.36 964.732 1311.82 1009.91 1312.57L1063.31 1313.46L1068.09 1310.51C1071.42 1308.44 1074.03 1305.07 1076.77 1299.29C1078.92 1294.75 1082.01 1289.83 1083.63 1288.37L1086.57 1285.72L1089.11 1288.85C1091.39 1291.67 1091.65 1294.35 1091.65 1314.84C1091.65 1327.41 1091.01 1339.95 1090.25 1342.71C1087.61 1352.22 1093.29 1351.7 987.441 1352.05C935.034 1352.22 890.393 1352.06 888.238 1351.69ZM1730.65 1351.69C1728.33 1350.73 1727.65 1349.37 1727.65 1345.69C1727.65 1341.36 1728.16 1340.72 1733.36 1338.49C1743.64 1334.08 1742.94 1344.28 1743.36 1192.93C1743.66 1085.37 1743.38 1056.42 1742.02 1052.27L1740.31 1047.03L1681.65 1046.64C1641.65 1046.37 1621.37 1046.71 1617.9 1047.72C1614.6 1048.67 1610.03 1052.01 1604.9 1057.22C1600.55 1061.64 1596.24 1065.01 1595.32 1064.71C1590.47 1063.1 1590.03 1055.65 1593.03 1025.89C1593.99 1016.37 1594.89 1013.21 1597.67 1009.56L1601.12 1005.03H1763.49H1925.86L1929.06 1008.44C1931.96 1011.53 1932.41 1013.74 1933.88 1032.11C1936.01 1058.65 1936.01 1062.71 1933.83 1065.68C1932.23 1067.87 1931.53 1067.97 1927.97 1066.5C1924.76 1065.17 1923.34 1063.18 1921.01 1056.81C1916.58 1044.65 1918.68 1045.03 1855.7 1045.03C1804.61 1045.03 1802.21 1045.14 1799.73 1047.62C1798.3 1049.05 1796.77 1052.2 1796.33 1054.62C1795.89 1057.05 1795.71 1119.63 1795.93 1193.7C1796.37 1345.08 1795.59 1334.22 1806.42 1339.75C1810.91 1342.04 1811.65 1342.97 1810.91 1345.43C1808.84 1352.34 1808.8 1352.35 1769.94 1352.65C1749.94 1352.8 1732.31 1352.37 1730.65 1351.69ZM2385.25 1352.08C2381.83 1351.43 2379.15 1346.04 2380.36 1342.24C2380.83 1340.75 2382.97 1339.45 2385.78 1338.92C2388.94 1338.33 2391.58 1336.53 2394.04 1333.31L2397.65 1328.57V1179.76C2397.65 1039.53 2397.52 1030.64 2395.26 1025.66C2393.95 1022.75 2390.77 1018.99 2388.19 1017.31C2384.42 1014.84 2383.68 1013.68 2384.41 1011.31C2386.57 1004.21 2385.9 1004.31 2425.78 1005.03L2462.77 1005.7L2464.07 1009.63C2465.2 1013 2464.96 1013.84 2462.41 1015.63C2454.44 1021.19 2451.44 1024.67 2450.28 1029.7C2448.48 1037.51 2448.61 1321.63 2450.42 1328.15C2451.39 1331.65 2453.12 1333.97 2455.88 1335.48C2464.48 1340.2 2466.57 1342.5 2465.68 1346.21C2464.07 1352.89 2463.13 1353.05 2424.4 1352.85C2404.56 1352.75 2386.94 1352.41 2385.25 1352.08ZM3038.59 1351.36C3037.83 1350.44 3036.8 1348.08 3036.31 1346.12C3035.54 1343.07 3036.08 1342.11 3040.02 1339.53C3042.55 1337.87 3045.88 1334.68 3047.41 1332.44C3050.18 1328.37 3050.19 1328.04 3050.41 1179.56C3050.56 1070.62 3050.21 1029.99 3049.1 1027.92C3048.27 1026.36 3044.03 1022.67 3039.67 1019.71C3031.2 1013.96 3030.63 1011.88 3036.73 1009.08C3042.08 1006.61 3096.63 1006.95 3102.58 1009.48C3107.67 1011.64 3110.66 1014.73 3158.99 1067.72C3167.98 1077.59 3185.27 1096.75 3194.32 1106.88C3197.62 1110.58 3204.51 1118.13 3209.62 1123.65C3224.32 1139.53 3228.96 1144.61 3244.95 1162.37C3253.21 1171.53 3266.09 1185.63 3273.57 1193.7C3281.06 1201.77 3289.5 1211.07 3292.34 1214.37C3302.35 1226.01 3312.36 1235.92 3316.08 1237.88C3324 1242.05 3323.65 1246.88 3323.65 1131.4V1026.1L3317.65 1020.01C3314.35 1016.67 3311.65 1013.42 3311.65 1012.79C3311.65 1012.17 3313.6 1010.44 3315.99 1008.95C3320.04 1006.42 3322.12 1006.27 3348.52 1006.64C3374.05 1007 3376.98 1007.27 3379.52 1009.57C3381.06 1010.97 3382.32 1012.53 3382.32 1013.03C3382.32 1013.54 3380.26 1016.07 3377.75 1018.66C3375.24 1021.25 3372.52 1025.81 3371.72 1028.78C3370.7 1032.58 3370.37 1077.61 3370.62 1179.95C3371.03 1343.95 3370.22 1331.75 3381.17 1338.99C3385.48 1341.85 3386.4 1343.18 3386.07 1346.07C3385.35 1352.23 3381.42 1353.13 3356.76 1352.73C3331.4 1352.32 3332.55 1352.79 3321.8 1338.34C3310.18 1322.72 3251.55 1251.91 3239.61 1239.07C3234.82 1233.92 3227.64 1225.8 3223.65 1221.03C3219.67 1216.27 3214.59 1210.53 3212.36 1208.28C3210.14 1206.03 3203.52 1198.83 3197.65 1192.29C3174.61 1166.57 3133.42 1121.93 3114.8 1102.48L3105.28 1092.54L3101.77 1094.83L3098.26 1097.13L3098.62 1212.92L3098.99 1328.71L3104.1 1336.13C3109.24 1343.6 3109.64 1346.81 3105.99 1351.37C3104.07 1353.77 3040.59 1353.76 3038.59 1351.35V1351.36ZM364.987 1348.68C362.646 1347.48 361.527 1345.66 361.23 1342.59C360.874 1338.91 361.676 1337.42 366.297 1333.2L371.787 1328.18L369.671 1321.95C367.424 1315.33 360.174 1301.66 351.768 1288.18C348.961 1283.68 345.763 1278.28 344.663 1276.18C340.347 1267.95 335.347 1258.96 334.374 1257.69C333.812 1256.96 330.928 1251.86 327.966 1246.36C316.455 1224.99 314.329 1221.54 310.305 1217.68L306.145 1213.69H231.84C164.122 1213.69 157.229 1213.9 154.073 1215.96C149.97 1218.65 136.103 1234.82 116.572 1259.69C90.6425 1292.72 80.2678 1308.11 79.0369 1315.4C77.9157 1322.03 80.4599 1327.55 86.6331 1331.86C92.1849 1335.74 92.9412 1336.88 92.9662 1341.39C92.9812 1344.15 92.1127 1345.43 89.5664 1346.39C87.6182 1347.14 68.8102 1347.69 45.8631 1347.69C11.1224 1347.69 5.16157 1347.4 2.53917 1345.56C-2.65283 1341.93 -0.211234 1336.82 12.9193 1323.86C24.4891 1312.44 38.2163 1296.24 50.9866 1278.94C54.6532 1273.97 61.5532 1264.65 66.3199 1258.23C75.7627 1245.51 89.0771 1226.86 97.9628 1213.92C101.066 1209.39 104.859 1203.89 106.391 1201.69C109.981 1196.54 117.381 1185.5 132.32 1163.02C138.92 1153.08 149.12 1138.09 154.987 1129.71C160.853 1121.32 168.953 1109.26 172.987 1102.92C177.02 1096.58 183.02 1087.34 186.32 1082.39C198.66 1063.9 201.997 1058.84 206.569 1051.69C222.266 1027.16 234.512 1009.27 237.541 1006.44C240.429 1003.75 241.634 1003.41 244.586 1004.45C248.811 1005.93 253.236 1012.92 272.402 1048.36C277.98 1058.68 282.3 1066.46 287.853 1076.19C292.793 1084.85 296.098 1090.86 305.199 1107.69C308.568 1113.93 313.451 1122.63 316.051 1127.03C321.153 1135.66 339.305 1168.18 345.082 1179.03C347.034 1182.69 352.227 1192.05 356.623 1199.82C365.482 1215.47 375.988 1235.24 391.999 1266.36C411.972 1305.19 423.621 1321.4 439.127 1331.96C445.113 1336.03 446.601 1342.67 442.457 1346.82C439.676 1349.6 438.435 1349.71 403.952 1350.04C377.011 1350.3 367.507 1349.97 364.987 1348.68ZM279.387 1172.76C283.562 1168.59 282.299 1165.78 251.933 1111.69C250.08 1108.39 247.114 1103.03 245.341 1099.77C238.587 1087.35 234.852 1087.4 227.403 1100.03C224.266 1105.34 220.49 1111.61 219.01 1113.94C217.53 1116.28 214.82 1120.73 212.987 1123.84C207.846 1132.54 201.338 1142.03 192.687 1153.46C183.535 1165.54 181.395 1172.43 186.497 1173.4C188.233 1173.73 209.483 1174.08 233.72 1174.18C266.424 1174.31 278.199 1173.95 279.387 1172.76ZM1376.03 1198.33C1370.04 1193.92 1365.78 1187.67 1364.36 1181.2C1362.85 1174.35 1368.72 1163.32 1376.5 1158.39C1385.49 1152.68 1392.76 1152.84 1401.81 1158.93C1409.6 1164.18 1412.99 1170.13 1412.99 1178.58C1412.99 1186.52 1409.31 1192.87 1401.72 1198.03C1392.9 1204.03 1383.92 1204.13 1376.03 1198.33ZM1412.99 881.423C1402.42 879.361 1403.42 875.266 1424.82 832.949C1461.73 759.973 1471.61 740.683 1472.88 739.156C1473.59 738.3 1480.66 724.809 1488.58 709.176C1496.5 693.544 1509.35 668.365 1517.13 653.224C1530.75 626.7 1548.23 592.466 1584.27 521.695C1593.61 503.361 1601.9 487.571 1602.69 486.606C1603.48 485.64 1611.73 469.74 1621.03 451.272C1638.83 415.909 1663.39 368.063 1670.09 355.695C1672.28 351.661 1680.45 335.761 1688.25 320.361C1701.71 293.801 1727.21 244.469 1735.26 229.403C1739.4 221.678 1753.27 193.998 1757.17 185.695C1758.55 182.761 1761.51 177.061 1763.75 173.028C1768.89 163.77 1825.61 53.1596 1837.94 28.3614C1850.84 2.39375 1851.24 1.76416 1855.63 0.483179C1862.78 -1.60255 1865.66 2.01265 1881.1 32.4994C1919.42 108.132 1928.9 126.496 1931.5 130.144C1933.05 132.323 1934.32 134.457 1934.32 134.885C1934.32 136.571 1972.07 211.181 1985.32 235.695C1987.11 238.995 1996.4 256.995 2005.98 275.695C2015.55 294.395 2025.18 312.995 2027.38 317.028C2031.56 324.71 2050.5 361.776 2073.44 407.158C2080.89 421.895 2087.74 434.859 2088.66 435.966C2089.58 437.073 2099.26 455.615 2110.17 477.17C2121.09 498.725 2135.17 526.261 2141.46 538.361C2147.76 550.461 2154.44 563.361 2156.31 567.028C2196.13 645.058 2223.89 698.929 2225.03 700.361C2225.61 701.095 2231.62 712.795 2238.4 726.361C2245.17 739.928 2253.43 755.828 2256.75 761.695C2267.82 781.259 2311.65 867.515 2311.65 869.722C2311.65 870.532 2309.81 872.958 2307.57 875.112L2303.48 879.028L2049.9 879.865C1910.43 880.325 1710.82 881.01 1606.32 881.388C1501.82 881.765 1414.82 881.781 1412.99 881.423ZM1621.4 786.459C1625.99 784.713 1627.99 780.99 1666.29 703.028C1690.34 654.069 1699.12 636.432 1704.11 627.028C1705.28 624.828 1709.19 616.728 1712.81 609.028C1721.26 591.025 1729.97 573.271 1732.42 569.028C1733.47 567.195 1739.48 554.895 1745.76 541.695C1752.05 528.495 1759.56 513.195 1762.45 507.695C1765.34 502.195 1770.16 492.595 1773.16 486.361C1776.15 480.128 1786.57 458.828 1796.31 439.028C1830.35 369.837 1847.41 334.928 1853.57 321.916C1856.98 314.705 1861.39 307.399 1863.38 305.682L1866.99 302.56L1871.92 312.794C1874.63 318.423 1880.2 330.228 1884.29 339.028C1888.38 347.828 1892.64 356.528 1893.76 358.361C1894.88 360.195 1897.6 365.595 1899.81 370.361C1907.11 386.104 1911.87 396.059 1925.66 424.361C1933.16 439.761 1943.38 461.361 1948.38 472.361C1953.38 483.361 1958.56 493.954 1959.89 495.901C1961.23 497.847 1962.32 499.819 1962.32 500.282C1962.32 500.745 1965.98 508.752 1970.46 518.076C1974.93 527.4 1980.28 538.628 1982.34 543.028C1987.99 555.07 1994.62 568.61 1999.98 579.028C2004.62 588.035 2011.65 604.13 2011.65 605.723C2011.65 606.149 2009.4 607.443 2006.65 608.598C2002.23 610.456 1994.68 610.587 1941.39 609.732L1881.14 608.765L1872.17 613.002C1867.23 615.333 1861.35 618.544 1859.09 620.138C1854.07 623.684 1850.86 625.675 1845.65 628.487C1839.22 631.962 1827.65 640.055 1827.65 641.086C1827.65 641.608 1828.65 642.858 1829.86 643.865C1831.7 645.391 1849.82 645.621 1938.81 645.252C2054.31 644.772 2050.3 645.036 2055.16 637.61C2059.49 631.009 2058.12 621.645 2050.51 605.834C2046.74 597.996 2043.65 591.251 2043.65 590.843C2043.65 590.436 2037.05 576.692 2028.99 560.302C2020.92 543.912 2014.32 530.173 2014.32 529.773C2014.32 529.372 2006.22 512.57 1996.32 492.435C1986.42 472.299 1978.32 455.378 1978.32 454.832C1978.32 454.286 1971.79 440.607 1963.82 424.434C1955.84 408.261 1947.21 390.528 1944.62 385.028C1942.04 379.528 1934.17 363.282 1927.12 348.926C1920.08 334.569 1914.32 322.404 1914.32 321.892C1914.32 321.38 1907.42 306.879 1898.99 289.666C1890.55 272.454 1883.65 257.919 1883.65 257.366C1883.65 256.814 1881.4 253.754 1878.65 250.568C1874.38 245.614 1872.73 244.672 1867.31 244.06C1857.56 242.962 1851.91 247.525 1844.87 262.183C1838.21 276.055 1832.37 287.842 1825.97 300.361C1823.35 305.495 1817.55 317.495 1813.08 327.028C1808.61 336.561 1804.12 345.861 1803.11 347.695C1802.09 349.528 1795.78 362.128 1789.07 375.695C1777.02 400.078 1770.24 413.495 1761.44 430.361C1758.95 435.128 1754.6 444.128 1751.77 450.361C1745.56 464.012 1730.79 494.237 1728.97 497.028C1728.25 498.128 1724.01 506.828 1719.56 516.361C1715.1 525.895 1709.47 537.595 1707.06 542.361C1695.05 566.037 1684.32 587.531 1675.78 605.028C1670.59 615.661 1664.27 628.261 1661.74 633.028C1659.2 637.795 1653.48 649.495 1649.01 659.028C1644.54 668.561 1638.42 681.161 1635.4 687.028C1627.52 702.327 1619.65 718.343 1619.65 719.071C1619.65 719.415 1614.78 729.665 1608.83 741.849C1598.68 762.635 1598.05 764.422 1598.66 770.799C1599.21 776.467 1600.06 778.232 1603.82 781.428C1611.01 787.551 1615.3 788.778 1621.4 786.459ZM1874.12 515.801C1875.46 515.086 1878.68 512.14 1881.29 509.253C1894.8 494.297 1887.16 469.329 1867.8 465.183C1853.47 462.113 1840.2 468.292 1835.74 480.115C1833.75 485.377 1833.97 497.631 1836.15 502.738C1841.82 516.059 1861.19 522.721 1874.12 515.801Z" fill="#F49320"/>
</g>
<defs>
<clipPath id="clip0_373_22">
<rect width="3386.13" height="1422.22" fill="white"/>
</clipPath>
</defs>
</svg>
