<?xml version="1.0" encoding="UTF-8" standalone="no"?>
<!-- Created with Inkscape (http://www.inkscape.org/) -->

<svg
   version="1.1"
   id="svg248"
   width="3386.1311"
   height="1422.2202"
   viewBox="0 0 3386.1312 1422.2202"
   sodipodi:docname="AlectrionLogo.svg"
   inkscape:version="1.2.1 (9c6d41e410, 2022-07-14)"
   xmlns:inkscape="http://www.inkscape.org/namespaces/inkscape"
   xmlns:sodipodi="http://sodipodi.sourceforge.net/DTD/sodipodi-0.dtd"
   xmlns="http://www.w3.org/2000/svg"
   xmlns:svg="http://www.w3.org/2000/svg">
  <defs
     id="defs252" />
  <sodipodi:namedview
     id="namedview250"
     pagecolor="#ffffff"
     bordercolor="#000000"
     borderopacity="0.25"
     inkscape:showpageshadow="2"
     inkscape:pageopacity="0.0"
     inkscape:pagecheckerboard="0"
     inkscape:deskcolor="#d1d1d1"
     showgrid="false"
     inkscape:zoom="0.25625716"
     inkscape:cx="1812.6323"
     inkscape:cy="714.12639"
     inkscape:window-width="1920"
     inkscape:window-height="1017"
     inkscape:window-x="-8"
     inkscape:window-y="-8"
     inkscape:window-maximized="1"
     inkscape:current-layer="g254" />
  <g
     inkscape:groupmode="layer"
     inkscape:label="Image"
     id="g254"
     transform="translate(33.136364,250.48323)">
    <path
       style="fill:#000000;stroke-width:1.33333"
       d="m 2317.1835,1170.9298 c -12.3677,-2.1712 -27.4895,-9.9949 -53.5456,-27.7037 -11.8729,-8.0692 -52.3829,-48.0317 -63.2589,-62.4041 -13.1595,-17.3896 -18.3546,-24.646 -22.3886,-31.2713 -2.1228,-3.4865 -6.9818,-11.1391 -10.7977,-17.0058 -3.8159,-5.8667 -9.8789,-15.3627 -13.4736,-21.1023 -3.5945,-5.7396 -8.9317,-14.13962 -11.8603,-18.66672 -6.5761,-10.1655 -42.571,-46.262 -49.3302,-49.4694 -7.2614,-3.4458 -28.029,-2.612 -30.8459,1.2384 -1.66,2.2689 -1.8924,11.9144 -1.5584,64.66672 0.4367,68.98 -0.051,65.2272 9.9076,76.3372 5.1688,5.7668 5.4529,7.5053 1.9361,11.8484 l -2.5489,3.1477 h -35.5689 -35.569 l -2.5489,-3.1477 c -3.6545,-4.5132 -3.2251,-6.3734 2.9151,-12.6236 10.7677,-10.9612 9.8266,3.7701 10.2314,-160.15582 l 0.3619,-146.5938 -8.3583,-7.7585 c -8.3054,-7.7096 -8.3453,-7.7814 -6.3112,-11.4062 l 2.047,-3.6477 47.2826,-0.3884 c 37.1383,-0.305 50.7155,0.062 63.2827,1.7104 8.8,1.1542 18.7,2.4306 22,2.8364 7.1577,0.8801 24.9567,8.4435 31.7888,13.5082 15.6988,11.6376 24.3101,27.4504 28.2776,51.9252 3.2632,20.1308 3.2501,30.851 -0.055,45.0259 -4.2205,18.1006 -12.0441,31.2388 -25.3818,42.6236 -3.9252,3.3506 -7.5923,6.092 -8.1487,6.092 -0.5565,0 -2.6187,2.1067 -4.5827,4.6815 l -3.5706,4.6814 10.5448,10.9852 c 14.1377,14.728 32.0769,39.3018 52.6006,72.05392 5.4231,8.6544 11.4631,18.2544 13.422,21.3333 1.959,3.0789 6.6407,10.698 10.4038,16.9314 31.0562,51.4428 53.1957,79.6714 77.5576,98.8885 6.7761,5.3452 12.1413,10.6328 12.5858,12.4039 0.618,2.4624 -2.603,11.9253 -3.8098,11.1926 -0.1646,-0.1 -1.7991,-0.4449 -3.6324,-0.7668 z M 2089.8502,904.73088 c 19.124,-4.9307 37.8433,-18.8426 45.387,-33.7309 3.6616,-7.2266 3.9463,-8.8464 3.9463,-22.4551 0,-14.3189 -0.1107,-14.8602 -4.6667,-22.826 -9.2948,-16.2511 -29.8253,-28.729 -51.7013,-31.4225 -10.8249,-1.3328 -12.4365,-1.2335 -17.1241,1.0553 l -5.1746,2.5265 -0.3492,51.058 c -0.2365,34.5754 0.1147,51.9244 1.0871,53.7419 3.1585,5.9015 11.3789,6.4917 28.5955,2.0528 z M 756.5168,1111.6592 c -1.4667,-0.8091 -4.3557,-3.041 -6.4202,-4.9594 l -3.7535,-3.4882 -114.0211,-0.6667 c -110.9252,-0.6485 -114.0726,-0.7369 -115.9132,-3.2548 -3.9257,-5.3703 -1.6959,-10.4636 7.1907,-16.4255 3.6398,-2.4418 8.8894,-12.3888 10.0203,-18.9864 0.4399,-2.5666 0.9153,-68.36012 1.0563,-146.20762 l 0.2563,-141.5409 -4.2078,-5.7217 c -4.9261,-6.6986 -5.1307,-8.2735 -1.5411,-11.8631 2.4997,-2.4997 4.4408,-2.6664 31,-2.6617 25.8936,0 28.7064,0.2325 32.6666,2.6471 2.3834,1.4531 4.3334,2.9909 4.3334,3.4173 0,0.4264 -1.4815,2.7175 -3.2921,5.0914 -7.7767,10.1957 -7.3746,1.9058 -7.3746,152.0345 0,150.09012 -0.4509,141.01102 7.0933,142.83812 1.5987,0.3872 36.7763,0.538 78.1724,0.3353 l 75.2658,-0.3687 4.554,-6 c 6.4353,-8.4784 8.0705,-9.1412 11.8142,-4.7889 3.0188,3.5095 3.1003,4.2976 3.1003,29.9641 0,25.8298 -0.062,26.4183 -3.0859,29.2591 -3.5404,3.326 -3.3824,3.2952 -6.9141,1.3467 z m 572.0298,-6.6751 c -24.918,-2.8393 -45.0758,-9.8179 -71.8578,-24.8768 -5.9613,-3.3519 -14.1386,-8.6088 -18.1719,-11.6823 -10.1953,-7.7688 -33.0954,-31.6579 -39.2002,-40.8931 -5.9541,-9.0074 -18.8361,-34.67302 -20.2617,-40.36852 -0.544,-2.1735 -2.0497,-6.3525 -3.3459,-9.2867 -3.9494,-8.9398 -9.1922,-41.4584 -9.1922,-57.0145 0,-14.8698 4.7936,-42.8277 8.6079,-50.2037 1.1109,-2.1484 2.9224,-6.5644 4.0254,-9.8133 2.5823,-7.6059 14.3895,-29.048 20.7232,-37.6336 6.6995,-9.0815 28.6419,-31.1619 35.9865,-36.2128 9.4687,-6.5117 30.4524,-18.8802 33.7007,-19.8643 1.6259,-0.4926 5.0563,-2.0254 7.6229,-3.4063 6.1159,-3.2904 25.3923,-8.7524 37.6203,-10.6599 14.7545,-2.3015 46.3867,-0.8743 56.3797,2.5439 4.4,1.505 10.1,3.1064 12.6667,3.5585 2.5667,0.4522 8.5667,2.2369 13.3333,3.9661 24.8435,9.0125 40.3031,12.7414 52.8248,12.7414 9.5018,0 13.3316,-1.7115 19.4932,-8.7115 5.8543,-6.6507 7.5207,-7.1501 11.0064,-3.2983 2.1818,2.4108 2.4527,6.4556 2.9242,43.6667 0.4984,39.3347 0.4094,41.1868 -2.1782,45.3431 -5.0813,8.1617 -10.3338,4.8638 -18.6534,-11.712 -12.609,-25.1218 -28.7555,-39.5006 -54.5018,-48.5347 -12.0132,-4.2154 -13.495,-4.501 -31.5726,-6.0858 -39.2362,-3.4396 -68.2255,3.9508 -97.7238,24.9131 -14.5584,10.3455 -30.1298,28.9667 -35.8884,42.9175 -1.0978,2.6594 -2.7924,5.7353 -3.7659,6.8353 -0.9735,1.1 -3.7382,8.9 -6.1438,17.3333 -4.1973,14.7146 -4.3761,16.3019 -4.4306,39.3333 -0.056,23.6811 0,24.1861 4.4455,38 2.4762,7.7 5.6262,15.431 7,17.1798 1.3738,1.7489 2.4978,3.8371 2.4978,4.6404 0,2.3748 9.2185,16.8406 16.7503,26.28472 7.2509,9.0919 33.251,31.6641 42.583,36.9687 14.6724,8.3403 37.0879,16.7818 52.2817,19.6888 13.0764,2.5019 42.5623,2.4519 53.345,-0.091 8.9477,-2.1098 29.5505,-12.1848 35.8348,-17.5236 2.1296,-1.8092 9.052,-8.3576 15.3833,-14.5521 11.9149,-11.6576 15.2981,-13.2229 20.4449,-9.4595 2.1319,1.5588 2.3476,2.9591 1.5926,10.3333 -0.4806,4.6916 -1.4592,14.2301 -2.1751,21.1968 -0.7159,6.9667 -1.3179,19.0416 -1.3377,26.8333 -0.048,18.5902 -0.8346,22.155 -5.4152,24.5236 -3.6015,1.8624 -3.8087,1.7622 -8.709,-4.218 -6.6652,-8.134 -11.1392,-9.8056 -26.2453,-9.8056 -14.3757,0 -29.6911,3.9108 -47,12.0018 -12.8957,6.0278 -36.1816,7.9666 -61.3036,5.1041 z m 1365.0392,0.1917 c -17.069,-2.1561 -34.4914,-7.5 -49.7356,-15.2552 -26.1338,-13.295 -35.3951,-19.9797 -55.3922,-39.9812 -14.3038,-14.307 -26.7136,-31.5398 -34.1298,-47.3945 -1.5436,-3.30002 -3.5566,-6.90002 -4.4731,-8.00002 -2.69,-3.2284 -10.0464,-27.8267 -11.3588,-37.9809 -0.6648,-5.1439 -1.8321,-12.5843 -2.594,-16.5344 -4.7152,-24.4436 3.7372,-71.8112 17.1575,-96.1514 2.2238,-4.0333 5.3172,-9.6686 6.874,-12.5229 3.1938,-5.8553 16.0852,-24.809 19.6048,-28.8243 6.7576,-7.7091 21.579,-21.3547 30.2958,-27.8924 20.9966,-15.7475 36.5374,-23.3144 64.0158,-31.1694 14.336,-4.0981 15.2978,-4.1931 42.6666,-4.2131 27.4006,-0.02 28.3283,0.07 43.3334,4.2244 25.087,6.9449 33.33,10.4434 50.6666,21.5043 25.6827,16.3855 46.5927,37.672 60.4716,61.5601 2.7695,4.7667 5.6112,9.5667 6.3151,10.6667 0.7039,1.1 2.4871,4.7 3.9627,8 1.4754,3.3 3.5568,7.8 4.625,10 1.0682,2.2 3.896,10.6 6.2839,18.6666 l 4.3417,14.6667 -0.04,33.3333 c -0.027,21.744 -0.5913,35.1877 -1.6246,38.6667 -0.8714,2.9333 -2.7118,9.5333 -4.0898,14.6667 -2.6652,9.9277 -12.355,30.89012 -19.21,41.55772 -2.2769,3.5432 -6.2628,9.7423 -8.8576,13.7756 -2.5946,4.0333 -12.0096,14.5333 -20.9221,23.3333 -12.8344,12.6723 -19.1464,17.7503 -30.3485,24.4156 -24.9707,14.8579 -41.5674,22.0298 -57.9936,25.061 -12.886,2.378 -47.1755,3.4213 -59.8443,1.821 z m 53.5977,-42.5741 c 22.6496,-6.8364 37.7481,-15.7038 53.4568,-31.3954 16.6495,-16.6314 25.8728,-31.1883 35.0564,-55.32812 1.5344,-4.0333 4.3104,-17.509 6.1689,-29.946 2.8776,-19.2568 3.1755,-24.0059 2.007,-32 -0.7547,-5.163 -1.9766,-14.1873 -2.7152,-20.054 -1.5063,-11.9619 -7.9627,-33.9002 -12.9492,-44 -6.1722,-12.5009 -15.5851,-25.3191 -26.9787,-36.7379 -19.3859,-19.429 -38.6653,-29.9727 -62.046,-33.9319 -44.4409,-7.5255 -79.6289,3.7773 -110.246,35.4123 -18.3945,19.0063 -28.1447,39.3908 -35.0325,73.2425 -4.7115,23.1553 -4.73,46.7104 -0.055,68.8769 6.8805,32.6191 16.5704,52.22952 36.6792,74.23182 11.9363,13.0602 33.9256,26.7355 48.8443,30.3766 3.5618,0.8693 7.6613,2.1876 9.1098,2.9295 9.5347,4.8833 39.8334,4.0181 58.6996,-1.6763 z m -38.6667,-117.24522 c -17.9208,-8.2653 -20.4964,-31.8627 -4.8964,-44.8597 5.2466,-4.3711 15.2766,-5.8892 21.6012,-3.2694 5.5452,2.2968 13.0219,11.3506 14.7871,17.9061 2.2464,8.3428 -0.36,17.7902 -6.5368,23.6936 -8.7796,8.391 -16.5248,10.4175 -24.9551,6.5294 z M 855.1016,1101.2056 c -3.406,-0.5847 -3.9716,-1.3158 -4.3275,-5.5931 -0.3573,-4.2937 0.093,-5.1804 3.5379,-6.9617 2.171,-1.1227 5.3553,-4.3058 7.0761,-7.0736 3.0791,-4.9524 3.1349,-5.6775 3.5171,-45.699 0.2137,-22.3666 -0.1205,-87.46662 -0.7427,-144.66662 l -1.1312,-104 -3.5472,-7.7347 c -1.951,-4.254 -4.7668,-9.2849 -6.2573,-11.1798 -2.7696,-3.521 -3.5097,-9.095 -1.6056,-12.094 0.8415,-1.3254 22.0337,-1.6038 101.5025,-1.3334 l 100.439,0.3419 2.671,3.5777 c 2.4275,3.2516 2.6838,5.7698 2.8104,27.6195 0.133,22.9266 0.01,24.1753 -2.7313,26.9226 l -2.8706,2.8808 -4.2724,-5.8337 c -2.3499,-3.2085 -5.2149,-7.7746 -6.3667,-10.1468 -1.1519,-2.3723 -4.5375,-5.9723 -7.5236,-8 l -5.4293,-3.6868 -48.6667,0.054 c -26.7667,0.03 -50.9152,0.5066 -53.6634,1.0598 -9.0849,1.8289 -9.1469,2.2465 -8.7163,58.7064 0.3036,39.7995 0.7464,50.2149 2.2096,51.9766 1.6441,1.9796 7.0858,2.2033 53.5888,2.2033 h 51.7588 l 6.2139,-8.0754 c 5.1007,-6.6287 6.8224,-8.0023 9.6101,-7.6667 5.1535,0.6203 6.6105,3.9814 4.3417,10.0163 -1.3182,3.5063 -2.1232,13.6102 -2.6226,32.9177 -0.6364,24.6052 -0.9931,28.0299 -3.0539,29.3265 -3.4573,2.1751 -6.3716,-0.1801 -10.9728,-8.868 -2.185,-4.1257 -5.3632,-8.1348 -7.0627,-8.9092 -1.9884,-0.906 -20.4059,-1.4079 -51.6632,-1.4079 h -48.5732 l -2.1688,3.31 c -1.8873,2.8804 -2.2495,10.4802 -2.7916,58.57422 l -0.6228,55.2642 3.1846,2.0867 c 2.6938,1.7651 11.4155,2.2232 56.5908,2.9729 l 53.4062,0.8864 4.773,-2.9498 c 3.3389,-2.0636 5.9484,-5.4331 8.6844,-11.2139 2.1513,-4.5452 5.2372,-9.4588 6.8576,-10.9191 l 2.9462,-2.6551 2.5395,3.1362 c 2.277,2.812 2.5387,5.4976 2.532,25.9884 0,12.5688 -0.6338,25.108 -1.3995,27.8649 -2.6409,9.5095 3.0416,8.9932 -102.8052,9.341 -52.4067,0.1721 -97.0481,0.013 -99.2031,-0.3596 z m 842.4152,0 c -2.3193,-0.9564 -3,-2.3163 -3,-5.994 0,-4.3319 0.51,-4.9758 5.7072,-7.2035 10.2827,-4.4076 9.582,5.7901 10.0014,-145.55912 0.2981,-107.558 0.023,-136.5107 -1.3388,-140.6667 l -1.7143,-5.233 -58.661,-0.394 c -39.9958,-0.2686 -60.2798,0.075 -63.7482,1.0796 -3.2992,0.9557 -7.8669,4.2969 -12.9961,9.5064 -4.35,4.4181 -8.6608,7.7848 -9.5796,7.4818 -4.8571,-1.6021 -5.2985,-9.059 -2.298,-38.8134 0.9599,-9.5189 1.8596,-12.6833 4.6436,-16.3333 l 3.4529,-4.5271 h 162.3664 162.3664 l 3.2023,3.4086 c 2.9026,3.0899 3.3541,5.3034 4.8266,23.6667 2.128,26.5386 2.1218,30.5996 -0.052,33.5723 -1.6033,2.1927 -2.3042,2.2906 -5.859,0.8182 -3.2088,-1.3291 -4.6376,-3.3176 -6.9592,-9.6847 -4.4339,-12.1605 -2.3307,-11.7811 -65.3178,-11.7811 -51.0878,0 -53.4872,0.1111 -55.9684,2.5923 -1.4257,1.4258 -2.9532,4.5758 -3.3944,7 -0.441,2.4242 -0.6245,65.0077 -0.4077,139.0744 0.4433,151.38412 -0.3367,140.52542 10.4919,146.04972 4.4962,2.2939 5.2318,3.2229 4.496,5.6797 -2.0696,6.9104 -2.1087,6.9174 -40.9723,7.2172 -19.9963,0.1543 -37.6348,-0.2753 -39.2879,-0.957 z m 654.5948,0.3933 c -3.4229,-0.6544 -6.0953,-6.0387 -4.8869,-9.846 0.4701,-1.4813 2.6056,-2.7876 5.4201,-3.3156 3.1564,-0.5921 5.8023,-2.3892 8.2583,-5.6091 l 3.6137,-4.7378 V 929.27688 c 0,-140.2299 -0.1378,-149.1187 -2.3906,-154.1039 -1.3148,-2.9097 -4.4968,-6.6669 -7.0711,-8.3493 -3.7743,-2.4665 -4.5072,-3.6284 -3.7851,-6 2.16,-7.0938 1.4964,-6.9931 41.3734,-6.2744 l 36.9874,0.6667 1.3072,3.9259 c 1.1236,3.3744 0.8898,4.2174 -1.6644,6 -7.9701,5.5627 -10.9676,9.0408 -12.129,14.0741 -1.8031,7.8133 -1.6687,291.93212 0.1412,298.44972 0.9714,3.4984 2.6972,5.8176 5.4572,7.3333 8.5964,4.7214 10.694,7.0168 9.8013,10.726 -1.6092,6.6867 -2.5473,6.8376 -41.2823,6.6427 -19.8432,-0.1 -37.4608,-0.4459 -39.1504,-0.7688 z m 653.3423,-0.7237 c -0.7641,-0.9208 -1.7923,-3.2795 -2.2847,-5.2415 -0.7656,-3.0503 -0.2273,-4.0052 3.7138,-6.5887 2.5349,-1.6617 5.8606,-4.853 7.3902,-7.0918 2.7752,-4.0618 2.7816,-4.3919 2.9958,-152.87792 0.157,-108.9343 -0.1915,-149.566 -1.3007,-151.6387 -0.8335,-1.5572 -5.0792,-5.2515 -9.4351,-8.2095 -8.468,-5.7505 -9.0437,-7.8309 -2.943,-10.6347 5.356,-2.4615 59.9032,-2.1296 65.8554,0.4007 5.0883,2.163 8.082,5.2546 56.4046,58.2476 8.993,9.8623 26.285,29.0275 35.3333,39.161 3.3,3.6958 10.1863,11.2409 15.3029,16.7669 14.6998,15.8759 19.3411,20.9618 35.331,38.714 8.2566,9.1667 21.1349,23.2667 28.6185,31.3334 7.4836,8.0666 15.9287,17.3666 18.7667,20.6666 10.01,11.6394 20.024,21.5584 23.7433,23.5183 7.9144,4.1704 7.5709,9.0004 7.5709,-106.4819 v -105.3038 l -6,-6.086 c -3.3,-3.3472 -6,-6.5959 -6,-7.2192 0,-0.6233 1.95,-2.3508 4.3334,-3.839 4.0569,-2.5333 6.1316,-2.6809 32.5289,-2.3138 25.5343,0.3551 28.4604,0.6319 31,2.9321 1.5424,1.397 2.8044,2.9549 2.8044,3.4621 0,0.5072 -2.0569,3.0401 -4.5709,5.6287 -2.514,2.5886 -5.227,7.1426 -6.0287,10.12 -1.0235,3.801 -1.3499,48.8279 -1.0957,151.1647 0.4073,164.00292 -0.4014,151.80342 10.5424,159.04572 4.3125,2.8539 5.2377,4.1904 4.901,7.0808 -0.717,6.1588 -4.6488,7.0511 -29.3112,6.6515 -25.3593,-0.4108 -24.2045,0.064 -34.9593,-14.3872 -11.6219,-15.6166 -70.2473,-86.4273 -82.188,-99.27072 -4.7907,-5.1529 -11.9717,-13.2689 -15.9579,-18.0356 -3.986,-4.7667 -9.0664,-10.5063 -11.2896,-12.7547 -2.2232,-2.2484 -8.8421,-9.444 -14.7088,-15.9902 -23.0465,-25.7162 -64.2286,-70.3545 -82.8545,-89.808 l -9.5213,-9.9444 -3.5072,2.2981 -3.5074,2.2981 0.3619,115.789 0.3619,115.78902 5.1126,7.4228 c 5.1435,7.4674 5.5422,10.6739 1.8943,15.2336 -1.924,2.4048 -65.4069,2.3979 -67.4032,-0.013 z m -2673.6037,-2.6807 c -2.3404,-1.2009 -3.4594,-3.0137 -3.7566,-6.0852 -0.3561,-3.6821 0.4462,-5.1696 5.0668,-9.3932 l 5.4899,-5.0183 -2.1156,-6.2313 c -2.2472,-6.6191 -9.4966,-20.2946 -17.9028,-33.7727 -2.8075,-4.5014 -6.0048,-9.9014 -7.1051,-12 -4.3158,-8.2312 -9.3163,-17.2136 -10.2892,-18.4822 -0.5624,-0.7334 -3.446,-5.8334 -6.4082,-11.33342 -11.5109,-21.3731 -13.637,-24.8258 -17.6608,-28.6809 l -4.1602,-3.9857 h -74.3045 c -67.7182,0 -74.6113,0.2011 -77.7673,2.269 -4.1031,2.6884 -17.9703,18.8595 -37.500898,43.73102 -25.9296,33.0205 -36.3043,48.4164 -37.5352,55.702 -1.1212,6.6364 1.423,12.15 7.5962,16.462 5.5518,3.8778 6.3081,5.0166 6.3331,9.5357 0.015,2.7543 -0.8535,4.0319 -3.3998,5 -1.9482,0.7407 -20.7562,1.3003 -43.7033,1.3003 -34.7407,0 -40.7015,-0.2931 -43.3239,-2.1299 -5.192,-3.6365 -2.7504,-8.7421 10.3801,-21.7052 11.5698003,-11.4223 25.2970003,-27.6201 38.0673,-44.9187 3.6666,-4.9668 10.5666,-14.2861 15.3333,-20.7093 9.4428,-12.72462 22.7572,-31.37162 31.6429,-44.31632 3.1036,-4.5214 6.8965,-10.0206 8.4286,-12.2206 3.5893,-5.1539 10.9894,-16.1925 25.9285,-38.6772 6.599998,-9.9335 16.799998,-24.924 22.666698,-33.3121 5.8666,-8.3881 13.9666,-20.4419 18,-26.7862 4.0333,-6.3443 10.0333,-15.5813 13.3333,-20.5266 12.3406,-18.4934 15.6772,-23.5517 20.2495,-30.6979 15.6969,-24.5334 27.9423,-42.4243 30.9717,-45.2506 2.8881,-2.6945 4.0932,-3.0364 7.0445,-1.9985 4.2258,1.4861 8.6507,8.472 27.8164,43.9157 5.5779,10.3155 9.898,18.0972 15.4507,27.831 4.94,8.6598 8.2457,14.6631 17.3464,31.5024 3.3687,6.2333 8.2523,14.9333 10.8523,19.3333 5.102,8.634 23.2537,41.1474 29.0308,52 1.9519,3.6667 7.1452,13.0223 11.5408,20.7903 8.859,15.656 19.3649,35.418 35.3758,66.54302 19.9729,38.8274 31.6227,55.0422 47.1287,65.5967 5.9855,4.0743 7.4731,10.7143 3.3293,14.8612 -2.7807,2.7828 -4.0218,2.8867 -38.5051,3.2221 -26.9406,0.2622 -36.4449,-0.071 -38.9651,-1.3637 z m -85.6,-175.91632 c 4.1755,-4.1756 2.9121,-6.9859 -27.4537,-61.0666 -1.8529,-3.3 -4.8191,-8.667 -6.5917,-11.9267 -6.7542,-12.4209 -10.4893,-12.3667 -17.9382,0.26 -3.1365,5.3167 -6.9133,11.5791 -8.3929,13.9166 -1.4796,2.3374 -4.1902,6.7891 -6.0235,9.8926 -5.1403,8.7017 -11.6481,18.1969 -20.2996,29.6182 -9.1518,12.0818 -11.2919,18.9773 -6.1899,19.9445 1.7359,0.3291 22.9861,0.68 47.2228,0.7799 32.7045,0.1347 44.4792,-0.231 45.6667,-1.4185 z m 1096.6417,25.5674 c -5.9898,-4.4051 -10.2485,-10.6542 -11.6696,-17.124 -1.506,-6.8568 4.3611,-17.8873 12.1372,-22.8188 8.993,-5.7032 16.2658,-5.5469 25.3099,0.5438 7.7924,5.2477 11.1808,11.2039 11.1808,19.6539 0,7.9399 -3.6745,14.2838 -11.2629,19.4444 -8.8216,5.9994 -17.8034,6.1045 -25.6954,0.3007 z m 36.9583,-316.90535 c -10.5644,-2.06278 -9.5647,-6.15707 11.8367,-48.4747 36.9058,-72.97559 46.7894,-92.26529 48.0574,-93.79314 0.7104,-0.85597 7.7748,-14.34667 15.6988,-29.97929 7.9239,-15.63263 20.7699,-40.81115 28.5466,-55.95227 13.6229,-26.52357 31.1004,-60.75828 67.148,-131.52928 9.3382,-18.33334 17.6254,-34.12342 18.4161,-35.08908 0.7905,-0.96566 9.0435,-16.86566 18.3397,-35.33334 17.8011,-35.36294 42.3612,-83.20924 49.0615,-95.57758 2.1849,-4.03334 10.3567,-19.933344 18.1595,-35.333344 13.4573,-26.56042 38.9558,-75.8927201 47.0138,-90.95866 4.1317,-7.72504 18.0028,-35.40484 21.9032,-43.708 1.3779,-2.93334 4.3385,-8.63334 6.5791,-12.66667 5.1432,-9.25824 61.8672,-119.868456 74.1892,-144.666656 12.903,-25.96769 13.3026,-26.59729 17.6941,-27.87827 7.1501,-2.08573 10.0264,1.52948 25.4728,32.01621 38.3201,75.63311 47.7977,93.99659 50.3952,97.64443 1.5519,2.17944 2.8216,4.31284 2.8216,4.7409 0,1.68599 37.7464,76.296276 51.0013,100.810056 1.7843,3.3 11.0798,21.2999999 20.6566,40 9.5766,18.7 19.2069,37.3 21.4005,41.33333 4.178,7.68224 23.1208,44.747414 46.0624,90.129414 7.4501,14.73784 14.2979,27.70176 15.2171,28.8087 0.919,1.10693 10.6013,19.64869 21.516,41.20392 10.9148,21.55521 24.9952,49.0913 31.2898,61.1913 6.2948,12.1 12.9759,25 14.8471,28.66667 39.8195,78.02991 67.5825,131.90058 68.7156,133.33332 0.5799,0.73334 6.5977,12.43334 13.3731,26 6.7753,13.56667 15.0334,29.46667 18.3513,35.33334 11.0647,19.5645 54.9025,105.82051 54.9025,108.02701 0,0.81074 -1.839,3.23634 -4.0869,5.39021 l -4.0869,3.91612 -253.5798,0.83641 c -139.4688,0.46003 -339.0797,1.14543 -443.5797,1.52311 -104.5,0.37767 -191.5,0.39379 -193.3333,0.0359 z m 208.4107,-94.96471 c 4.5928,-1.74618 6.5961,-5.46904 44.8934,-83.43065 24.0502,-48.95877 32.8269,-66.59639 37.8189,-76 1.1679,-2.2 5.0823,-10.3 8.6987,-18 8.4555,-18.00315 17.1581,-35.757 19.6073,-39.99999 1.0584,-1.83333 7.0654,-14.13333 13.3488,-27.33333 6.2835,-13.2 13.7919,-28.5 16.6851,-34 2.8933,-5.5 7.7121,-15.1 10.7084,-21.33334 2.9964,-6.23333 13.4165,-27.53333 23.1559,-47.33333 34.0344,-69.19116 51.1004,-104.100514 57.252,-117.111964 3.4094,-7.21157 7.824,-14.51695 9.81,-16.23416 l 3.6108,-3.12221 4.9341,10.23417 c 2.7137,5.62879 8.28,17.43416 12.3693,26.23416 4.0895,8.8 8.3507,17.500004 9.4694,19.333334 1.1186,1.83334 3.8417,7.23334 6.0512,12 7.2972,15.74266 12.0617,25.69714 25.8462,54 7.5004,15.4 17.7259,37 22.7232,48 4.9974,11 10.1782,21.59263 11.513,23.53916 1.3348,1.94654 2.4269,3.91811 2.4269,4.38127 0,0.46316 3.6613,8.47055 8.1363,17.79417 4.4748,9.32364 9.8241,20.55207 11.887,24.95207 5.646,12.04157 12.281,25.58208 17.6403,36 4.6337,9.00721 11.6697,25.10218 11.6697,26.69451 0,0.42619 -2.25,1.72017 -5,2.87552 -4.4213,1.85753 -11.9741,1.98873 -65.2588,1.13363 l -60.2589,-0.96703 -8.9691,4.23772 c -4.933,2.33073 -10.8165,5.54151 -13.0745,7.13503 -5.0257,3.54686 -8.23,5.53758 -13.4387,8.34916 -6.4378,3.47505 -18,11.56841 -18,12.59981 0,0.52165 0.9934,1.77192 2.2075,2.77839 1.8404,1.52565 19.9551,1.75626 108.9449,1.38693 115.5026,-0.47937 111.4936,-0.21611 116.3588,-7.64143 4.3256,-6.60162 2.9543,-15.96497 -4.654,-31.77625 -3.7714,-7.83768 -6.8572,-14.58356 -6.8572,-14.99086 0,-0.4073 -6.6,-14.15086 -14.6666,-30.54125 -8.0667,-16.39037 -14.6667,-30.12851 -14.6667,-30.52915 0,-0.40065 -8.1,-17.20289 -18,-37.33829 -9.9,-20.13541 -18,-37.05661 -18,-37.60267 0,-0.54606 -6.5256,-14.2253 -14.5013,-30.3983 -7.9758,-16.17302 -16.6134,-33.90547 -19.1947,-39.40547 -2.5815,-5.5 -10.4559,-21.74616 -17.4988,-36.102594 -7.0428,-14.35641 -12.8052,-26.52141 -12.8052,-27.03333 0,-0.51191 -6.9,-15.0136 -15.3333,-32.22597 -8.4334,-17.21236 -15.335,-31.7473601 -15.337,-32.3000001 0,-0.55263 -2.252,-3.61172 -5,-6.79798 -4.2726,-4.95408 -5.9152,-5.89672 -11.3396,-6.50785 -9.7513,-1.09861 -15.402,3.46439 -22.442,18.1222801 -6.6629,13.87275 -12.496,25.6596 -18.8938,38.17877 -2.6234,5.13334 -8.4263,17.13334 -12.8955,26.66667 -4.4691,9.53333 -8.9557,18.83333 -9.9701,20.66667 -1.0144,1.83333 -7.3312,14.433334 -14.0374,28.000004 -12.053,24.38368 -18.8346,37.8004 -27.6313,54.66666 -2.4861,4.76667 -6.8388,13.76667 -9.6727,20 -6.206,13.65079 -20.9726,43.87535 -22.7997,46.66667 -0.72,1.1 -4.9553,9.8 -9.412,19.33333 -4.4567,9.53334 -10.0807,21.23334 -12.4979,26 -12.0057,23.67548 -22.7327,45.16919 -31.2755,62.66666 -5.1916,10.63333 -11.5116,23.23333 -14.0447,28 -2.5331,4.76667 -8.26,16.46667 -12.7265,26 -4.4666,9.53333 -10.5919,22.13333 -13.612,28 -7.8756,15.29884 -15.7456,31.31463 -15.7456,32.04315 0,0.34378 -4.8698,10.5939 -10.8215,22.77804 -10.1537,20.78576 -10.7813,22.57244 -10.1685,28.94968 0.5446,5.66797 1.4006,7.4332 5.1549,10.62936 7.192,6.12308 11.4788,7.34977 17.5791,5.03042 z M 1840.9842,265.3182 c 1.3361,-0.71507 4.5629,-3.66169 7.1705,-6.54805 13.5119,-14.95599 5.8692,-39.92416 -13.4899,-44.07084 -14.3285,-3.06918 -27.5962,3.10985 -32.0632,14.93237 -1.9881,5.26221 -1.766,17.51575 0.4102,22.62269 5.6765,13.32134 25.0422,19.98383 37.9724,13.06383 z"
       id="path429" />
  </g>
</svg>
